<?xml version="1.0" standalone="no"?>
<!DOCTYPE svg PUBLIC "-//W3C//DTD SVG 20010904//EN"
 "http://www.w3.org/TR/2001/REC-SVG-20010904/DTD/svg10.dtd">
<svg version="1.0" xmlns="http://www.w3.org/2000/svg"
 width="225.000000pt" height="225.000000pt" viewBox="0 0 225.000000 225.000000"
 preserveAspectRatio="xMidYMid meet">

<g transform="translate(0.000000,225.000000) scale(0.100000,-0.100000)"
fill="#000000" stroke="none">
<path d="M330 2115 c-6 -8 -14 -27 -16 -42 -2 -15 -6 -42 -10 -60 -3 -18 -1
-46 5 -64 8 -25 8 -35 -4 -52 -11 -16 -15 -51 -15 -138 0 -79 -7 -149 -20
-215 -35 -168 -30 -199 57 -330 19 -28 41 -78 50 -110 8 -33 23 -73 34 -90 23
-38 71 -171 71 -199 0 -11 -10 -47 -22 -80 -18 -50 -21 -76 -18 -171 3 -106 5
-115 33 -156 17 -24 48 -51 68 -61 20 -9 37 -23 37 -31 0 -8 14 -26 32 -41 28
-24 39 -27 85 -23 129 11 327 159 368 276 11 28 23 52 27 52 10 0 10 -6 -3
-73 -10 -47 -9 -64 6 -109 13 -41 14 -53 4 -57 -7 -2 -24 -15 -37 -28 -22 -22
-24 -30 -18 -81 10 -87 23 -106 75 -110 58 -4 141 37 207 103 73 73 91 115
109 251 11 80 23 133 40 166 30 60 139 204 165 218 27 14 66 12 80 -4 6 -8 33
-22 60 -31 30 -10 51 -24 55 -36 5 -16 25 -28 25 -14 0 25 -30 57 -70 74 -26
11 -53 27 -60 36 -7 8 -26 15 -42 15 -16 0 -45 12 -65 27 -48 37 -132 43 -191
15 l-42 -20 -27 21 c-16 11 -31 23 -36 27 -18 16 -55 192 -60 292 -6 119 -11
130 -73 205 -79 93 -126 186 -141 281 -7 47 -18 92 -25 99 -17 21 -44 15 -75
-18 -41 -45 -72 -55 -90 -29 -8 11 -49 46 -91 77 -42 31 -99 78 -127 103 -27
26 -64 56 -82 68 -33 23 -78 29 -88 12 -4 -7 -25 6 -51 30 -46 42 -74 50 -94
25z m23 -18 c-3 -16 4 -34 19 -52 21 -24 27 -26 46 -16 20 11 32 3 132 -85
112 -97 143 -135 121 -142 -6 -2 -11 -8 -11 -13 0 -6 5 -7 10 -4 6 3 10 -1 10
-9 0 -9 7 -16 15 -16 9 0 12 6 8 18 -6 15 -4 15 16 -3 l23 -20 -21 -16 c-29
-24 -26 -35 4 -15 14 9 25 12 25 7 0 -14 134 -210 170 -248 43 -47 49 -41 8
10 -19 23 -66 96 -106 163 -57 96 -91 139 -167 215 -53 52 -100 96 -105 97
-15 5 -12 28 4 41 14 12 35 -2 116 -77 14 -13 42 -35 63 -49 27 -19 36 -31 32
-44 -5 -14 -1 -16 15 -12 22 6 29 -21 8 -31 -7 -4 -3 -4 10 -2 24 5 29 -12 10
-33 -11 -11 -7 -12 19 -6 31 6 33 5 61 -52 40 -79 262 -294 262 -254 0 5 -16
19 -35 31 -19 12 -35 25 -35 30 0 4 -34 43 -75 86 -65 68 -75 83 -75 114 0 71
30 121 72 120 8 -1 6 -6 -5 -15 -25 -18 -14 -70 19 -91 15 -10 24 -26 24 -41
0 -14 8 -37 19 -51 10 -15 28 -47 40 -71 13 -23 42 -67 66 -97 50 -61 71 -122
80 -234 4 -41 16 -113 27 -160 17 -70 28 -92 59 -125 l38 -40 -45 -39 c-49
-42 -134 -145 -179 -218 -17 -27 -35 -48 -41 -48 -6 0 -37 24 -70 54 -32 29
-91 74 -131 99 -94 60 -145 107 -198 181 -62 88 -105 179 -121 258 -8 39 -23
87 -33 107 -10 20 -28 68 -40 106 -11 39 -51 132 -87 207 -43 88 -64 143 -60
154 6 16 8 15 22 -5 12 -17 22 -21 40 -17 20 5 27 0 48 -42 14 -27 41 -70 61
-96 35 -46 38 -66 9 -66 -8 0 -14 -10 -14 -22 0 -18 2 -20 9 -9 8 13 12 13 27
0 16 -13 17 -12 12 9 -4 15 -2 22 8 22 23 0 29 -48 9 -70 -10 -11 -13 -20 -7
-20 6 0 14 5 18 11 4 6 24 -8 50 -38 24 -26 43 -43 44 -36 0 7 -13 27 -29 45
-16 18 -36 50 -45 71 -8 21 -35 60 -58 86 -40 44 -59 77 -118 204 -17 37 -27
47 -46 47 -45 0 -85 110 -50 139 14 12 15 10 10 -16 -7 -35 15 -58 55 -58 20
0 50 -26 134 -115 110 -117 112 -121 92 -175 -6 -17 -4 -17 14 4 12 13 23 22
24 20 1 -2 20 -41 42 -87 21 -45 52 -94 67 -109 33 -31 36 -21 7 22 -11 17
-38 66 -61 110 -46 91 -129 198 -201 258 -28 24 -61 66 -80 101 -26 49 -38 62
-64 68 -42 11 -70 59 -54 94 14 31 19 31 14 1z m66 -21 l23 -24 -23 -7 c-17
-6 -27 -2 -41 15 -34 41 3 56 41 16z m121 -47 c0 -23 -32 -25 -51 -3 -10 13
-10 17 0 24 21 12 51 0 51 -21z m-205 -24 c0 -10 -6 -20 -12 -22 -8 -3 -13 5
-13 22 0 17 5 25 13 23 6 -3 12 -13 12 -23z m85 -45 c12 -23 6 -40 -15 -40
-13 0 -25 21 -25 46 0 21 28 17 40 -6z m-69 -118 c7 -19 4 -36 -12 -69 -12
-25 -25 -41 -30 -36 -4 4 -6 41 -2 81 5 62 8 70 20 60 9 -7 19 -23 24 -36z
m79 -41 c14 -27 13 -38 -5 -45 -17 -6 -50 37 -40 54 10 16 33 12 45 -9z m590
-33 c0 -25 -3 -29 -10 -18 -13 20 -13 50 0 50 6 0 10 -15 10 -32z m-110 -20
c0 -18 -2 -20 -9 -8 -6 8 -7 18 -5 22 9 14 14 9 14 -14z m-544 -60 c22 -43 20
-89 -5 -109 -17 -14 -18 -18 -6 -23 11 -4 15 -23 15 -75 0 -38 -4 -73 -10 -76
-17 -11 -11 -23 9 -18 38 10 109 -115 91 -162 -15 -41 5 -29 25 14 17 38 40
58 49 43 11 -18 37 -176 32 -195 -3 -12 -18 -30 -33 -39 -20 -12 -23 -18 -11
-18 9 0 20 5 23 10 3 6 16 10 29 10 17 0 33 -18 71 -80 26 -45 52 -83 57 -86
12 -7 10 -62 -3 -86 -6 -11 -8 -22 -6 -25 3 -3 13 10 23 29 22 44 21 44 44 23
22 -20 26 -65 9 -97 -6 -11 -8 -22 -6 -25 3 -3 12 8 21 24 14 25 15 26 16 6 0
-12 -12 -31 -27 -42 -14 -12 -23 -24 -20 -28 4 -3 25 13 47 37 25 27 45 40 55
37 37 -15 6 -65 -60 -100 l-30 -16 28 -1 c15 0 27 -4 27 -10 0 -5 5 -10 10
-10 6 0 10 5 10 12 0 14 40 58 52 58 19 0 -23 -58 -84 -117 -49 -47 -77 -65
-118 -77 -29 -9 -59 -16 -66 -16 -29 0 -57 154 -35 189 8 12 15 9 41 -12 17
-15 41 -27 53 -27 18 0 15 4 -16 25 -20 14 -47 45 -58 68 -12 23 -39 62 -60
87 -39 47 -89 142 -89 172 0 9 8 18 18 20 13 3 9 8 -16 22 -34 18 -71 81 -72
122 0 11 -27 65 -60 120 -54 90 -60 104 -60 155 0 90 50 319 71 319 4 0 16
-15 25 -32z m63 -135 c7 -23 5 -37 -6 -53 -15 -21 -14 -22 5 -16 24 8 40 -17
65 -102 29 -98 -3 -111 -61 -24 -34 50 -40 66 -45 132 -7 106 19 145 42 63z
m1157 -640 l54 -26 -29 -26 c-44 -38 -159 -208 -171 -251 -6 -21 -17 -80 -24
-133 -15 -98 -38 -148 -110 -241 -33 -42 -105 -81 -173 -92 -49 -7 -58 4 -69
83 -6 46 -4 52 20 71 15 11 85 39 157 63 132 43 167 60 69 34 -50 -13 -55 -13
-78 6 -14 10 -36 34 -49 51 -20 27 -23 29 -23 11 0 -11 11 -37 25 -57 l25 -37
-28 -10 c-17 -7 -33 -7 -42 -1 -24 14 -42 82 -36 134 13 115 160 311 311 415
58 40 100 41 171 6z m-1049 -145 c48 -49 54 -74 30 -127 -15 -35 -18 -58 -14
-105 3 -34 9 -70 12 -81 7 -20 6 -20 -9 -1 -9 11 -16 30 -16 44 0 13 -4 21 -9
18 -4 -3 -6 -17 -3 -31 6 -33 -15 -33 -30 0 -12 27 -28 24 -28 -5 0 -25 46
-60 78 -60 14 0 63 11 108 25 109 33 169 81 281 223 l18 22 58 -52 58 -53 -31
-62 c-20 -40 -54 -83 -96 -123 -84 -78 -131 -107 -205 -126 -72 -18 -120 -7
-138 32 -14 32 -14 34 4 34 8 0 15 5 15 10 0 6 -20 10 -44 10 -37 0 -48 5 -74
34 -46 52 -55 94 -49 215 4 98 27 191 46 191 4 0 21 -15 38 -32z"/>
<path d="M592 1683 c-7 -2 -17 -14 -23 -26 -11 -20 -10 -20 17 3 16 14 31 26
33 28 7 4 -14 1 -27 -5z"/>
<path d="M600 1655 c-8 -9 -8 -15 -2 -15 12 0 26 19 19 26 -2 2 -10 -2 -17
-11z"/>
<path d="M1071 1175 c-1 -6 19 -46 44 -89 24 -43 47 -87 50 -97 11 -33 137
-120 152 -105 3 3 -8 21 -25 41 -21 23 -42 69 -64 138 -22 68 -34 94 -36 77
-1 -14 9 -58 23 -99 14 -41 25 -79 25 -84 0 -15 -30 14 -46 46 -9 16 -34 55
-57 87 -23 31 -47 66 -54 76 -6 11 -12 14 -12 9z"/>
<path d="M962 552 c-6 -29 -12 -67 -11 -85 1 -27 4 -23 15 23 8 30 13 69 11
85 -2 25 -4 21 -15 -23z"/>
<path d="M882 515 c-17 -37 -14 -45 4 -12 9 16 14 31 11 33 -2 2 -9 -7 -15
-21z"/>
<path d="M856 455 c-9 -26 -7 -32 5 -12 6 10 9 21 6 23 -2 3 -7 -2 -11 -11z"/>
</g>
</svg>
